<svg width="1080" height="51" viewBox="0 0 1080 51" fill="none" xmlns="http://www.w3.org/2000/svg">
<path d="M521 22L493 50" stroke="white" stroke-width="1.5"/>
<path d="M500.5 22L472.5 50" stroke="white" stroke-width="1.5"/>
<path d="M480 22L452 50" stroke="white" stroke-width="1.5"/>
<path d="M459.5 22L431.5 50" stroke="white" stroke-width="1.5"/>
<path d="M439 22L411 50" stroke="white" stroke-width="1.5"/>
<path d="M418.5 22L390.5 50" stroke="white" stroke-width="1.5"/>
<path d="M398 22L370 50" stroke="white" stroke-width="1.5"/>
<path d="M377.5 22L349.5 50" stroke="white" stroke-width="1.5"/>
<path d="M357 22L329 50" stroke="white" stroke-width="1.5"/>
<path d="M193 22L165 50" stroke="white" stroke-width="1.5"/>
<path d="M172.5 22L144.5 50" stroke="white" stroke-width="1.5"/>
<path d="M152 22L124 50" stroke="white" stroke-width="1.5"/>
<path d="M131.5 22L103.5 50" stroke="white" stroke-width="1.5"/>
<path d="M111 22L83.0002 50" stroke="white" stroke-width="1.5"/>
<path d="M90.5 22L62.5 50" stroke="white" stroke-width="1.5"/>
<path d="M70 22L42 50" stroke="white" stroke-width="1.5"/>
<path d="M49.5 22L21.5 50" stroke="white" stroke-width="1.5"/>
<path d="M29.0001 22L1.00012 50" stroke="white" stroke-width="1.5"/>
<path d="M357 22L329 50" stroke="white" stroke-width="1.5"/>
<path d="M336.5 22L308.5 50" stroke="white" stroke-width="1.5"/>
<path d="M316 22L288 50" stroke="white" stroke-width="1.5"/>
<path d="M295.5 22L267.5 50" stroke="white" stroke-width="1.5"/>
<path d="M275 22L247 50" stroke="white" stroke-width="1.5"/>
<path d="M254.5 22L226.5 50" stroke="white" stroke-width="1.5"/>
<path d="M234 22L206 50" stroke="white" stroke-width="1.5"/>
<path d="M213.5 22L185.5 50" stroke="white" stroke-width="1.5"/>
<path d="M193 22L165 50" stroke="white" stroke-width="1.5"/>
<path d="M1080 1H570L520 51" stroke="white" stroke-width="1.5"/>
</svg>
