<svg width="1457" height="729" viewBox="0 0 1457 729" fill="none" xmlns="http://www.w3.org/2000/svg">
<g clip-path="url(#clip0_153_446)">
<path d="M936.211 532.826H896.265L890.565 557.676H867.393L895.426 441.712H937.05L965.083 557.676H941.922L936.211 532.826ZM900.963 511.958H931.35L917.748 452.653H914.729L900.963 511.958Z" fill="white"/>
<path d="M1058.74 557.676H1036.59V522.887C1036.69 520.558 1035.95 518.27 1034.5 516.433C1033.08 514.776 1030.75 513.948 1027.5 513.948H1001.99V557.665H979.84V441.701H1024.83C1030.25 441.602 1035.65 442.443 1040.78 444.186C1045.06 445.668 1048.97 448.019 1052.27 451.088C1055.29 453.97 1057.67 457.437 1059.26 461.27C1060.9 465.211 1061.73 469.435 1061.7 473.694V477.675C1061.73 482.394 1060.4 487.024 1057.88 491.031C1055.04 495.384 1050.87 498.723 1045.97 500.557V503.537C1049.54 503.759 1052.88 505.361 1055.27 507.996C1057.65 510.632 1058.89 514.088 1058.72 517.618L1058.74 557.676ZM1002.01 493.068H1023.17C1028.53 493.068 1032.61 491.825 1035.42 489.34C1038.22 486.855 1039.62 483.35 1039.61 478.825V476.835C1039.63 474.972 1039.27 473.123 1038.55 471.401C1037.83 469.679 1036.76 468.119 1035.42 466.815C1032.62 464 1028.54 462.593 1023.17 462.593H1002.01V493.068Z" fill="white"/>
<path d="M1141.8 477.226C1141.81 474.945 1141.32 472.688 1140.38 470.605C1139.44 468.521 1138.07 466.657 1136.35 465.135C1132.71 461.707 1127.59 459.993 1121 459.993C1115.4 459.993 1110.98 461.143 1107.73 463.444C1106.2 464.446 1104.95 465.816 1104.1 467.426C1103.25 469.036 1102.82 470.832 1102.87 472.647C1102.84 474.506 1103.24 476.347 1104.04 478.031C1104.98 479.809 1106.41 481.297 1108.15 482.334C1110.55 483.829 1113.15 484.991 1115.88 485.785C1119.87 486.973 1123.94 487.914 1128.05 488.604C1140.35 490.813 1149.75 494.513 1156.24 499.706C1162.74 504.898 1165.98 512.568 1165.98 522.714V524.705C1166.05 529.743 1165.05 534.742 1163.04 539.373C1161.12 543.689 1158.22 547.515 1154.57 550.555C1150.61 553.785 1146.05 556.206 1141.14 557.676C1128.62 561.228 1115.31 560.967 1102.95 556.928C1097.46 555.016 1092.46 551.964 1088.27 547.978C1084.36 544.189 1081.33 539.614 1079.37 534.564C1077.31 529.193 1076.28 523.488 1076.34 517.744V512.786H1098.49V516.755C1098.49 523.719 1100.53 529.268 1104.62 533.402C1108.71 537.536 1115.05 539.607 1123.66 539.614C1130.38 539.614 1135.36 538.18 1138.61 535.312C1140.13 534.056 1141.36 532.485 1142.2 530.709C1143.04 528.934 1143.47 526.998 1143.47 525.038C1143.48 523.198 1143.14 521.371 1142.47 519.654C1141.71 517.853 1140.51 516.269 1138.97 515.052C1136.89 513.452 1134.57 512.193 1132.08 511.325C1128.49 510.042 1124.78 509.098 1121.01 508.506C1115.48 507.617 1110.02 506.317 1104.69 504.618C1100.1 503.181 1095.77 501.025 1091.87 498.233C1088.28 495.638 1085.37 492.229 1083.39 488.293C1081.25 483.733 1080.22 478.742 1080.37 473.717V472.728C1080.33 468.174 1081.33 463.67 1083.31 459.555C1085.27 455.518 1088.08 451.935 1091.54 449.04C1095.3 445.947 1099.63 443.602 1104.29 442.138C1109.69 440.418 1115.33 439.579 1121 439.653C1127.27 439.547 1133.52 440.528 1139.46 442.552C1144.45 444.26 1149.04 446.936 1152.97 450.421C1156.51 453.603 1159.32 457.499 1161.2 461.845C1163.04 466.144 1163.98 470.765 1163.96 475.431V481.391H1141.81L1141.8 477.226Z" fill="white"/>
<path d="M292 441.712H314.147V489.098H352.099V441.712H374.246V557.676H352.099V509.967H314.217V557.676H292.07L292 441.712Z" fill="white"/>
<path d="M398.257 441.712H472.437V462.592H420.404V489.052H470.409V509.921H420.404V536.761H474.453V557.63H398.257V441.712Z" fill="white"/>
<path d="M500.971 441.712H523.118V536.807H576.479V557.676H500.948L500.971 441.712Z" fill="white"/>
<path d="M619.817 441.712V557.676H597.67V441.712H619.817Z" fill="white"/>
<path d="M725.561 441.712V517.641C725.561 530.894 722.006 541.275 714.896 548.783C707.786 556.292 697.241 560.05 683.261 560.057C669.274 560.057 658.725 556.303 651.615 548.795C644.505 541.286 640.953 530.905 640.961 517.652V441.723H663.108V517.652C663.108 524.494 664.728 529.862 667.968 533.758C671.209 537.655 676.303 539.572 683.25 539.511C690.181 539.511 695.271 537.593 698.519 533.758C701.767 529.924 703.391 524.555 703.391 517.652V441.723L725.561 441.712Z" fill="white"/>
<path d="M831.306 441.781L836.679 529.916V544.872H840.712V529.916L843.393 441.781H863.535L859.514 557.745H820.909L815.535 469.61V454.655H811.502V469.61L806.105 557.757H770.531L765.157 469.622V454.666H761.124V469.622L758.443 557.757H738.313L742.335 441.793H780.94L786.313 529.928V545.827H790.346V529.916L795.72 441.781H831.306Z" fill="white"/>
<path d="M652.244 192.849L649.389 194L654.261 205.262V228.122H634.947V207.862C634.947 197.287 639.202 187.145 646.778 179.665C654.356 172.189 664.632 167.989 675.347 167.988H695.873V187.04H672.712L661.301 182.242L660.135 185.049L652.244 192.849Z" fill="white"/>
<path d="M805.767 328.82L808.623 327.669L803.751 316.406V293.536H823.053V313.806C823.054 319.041 822.009 324.225 819.979 329.061C817.949 333.897 814.973 338.291 811.222 341.992C807.471 345.697 803.018 348.636 798.116 350.641C793.214 352.647 787.96 353.68 782.653 353.681H762.127V334.572H785.287L796.71 339.369L797.876 336.551L805.767 328.82Z" fill="white"/>
<path d="M660.124 336.596L661.289 339.415L672.701 334.618H695.862V353.669H675.347C664.63 353.664 654.354 349.46 646.778 341.98C643.026 338.278 640.05 333.882 638.02 329.044C635.99 324.205 634.945 319.02 634.947 313.783V293.524H654.249V316.395L649.389 327.657L652.233 328.808L660.124 336.596Z" fill="white"/>
<path d="M719.384 213.108L723.428 223.462L720.573 224.613L715.91 213.258L699.591 197.152L685.942 210.612L700.454 224.946C708.032 232.423 718.308 236.623 729.023 236.623C739.738 236.623 750.014 232.423 757.592 224.946L772.104 210.612L758.455 197.152L742.078 213.258L737.416 224.613L734.572 223.462L738.605 213.108H719.384Z" fill="white"/>
<path d="M680.639 270.32L691.129 266.339L692.295 269.146L680.778 273.748L664.402 289.912L678.051 303.383L692.574 289.049C696.326 285.346 699.302 280.95 701.332 276.112C703.362 271.274 704.407 266.088 704.405 260.852C704.404 250.277 700.149 240.135 692.574 232.655L678.051 218.332L664.402 231.803L680.778 247.909L692.295 252.511L691.129 255.318L680.639 251.338V270.32Z" fill="white"/>
<path d="M777.361 270.32L766.871 266.339L765.705 269.146L777.221 273.748L793.54 289.912L779.891 303.383L765.379 289.049C761.628 285.348 758.652 280.954 756.622 276.118C754.592 271.282 753.548 266.098 753.548 260.863C753.547 255.627 754.591 250.441 756.621 245.603C758.651 240.765 761.627 236.369 765.379 232.666L779.891 218.332L793.54 231.803L777.221 247.909L765.705 252.511L766.871 255.318L777.361 251.338V270.32Z" fill="white"/>
<path d="M719.384 308.56L723.428 298.207L720.573 297.056L715.91 308.422L699.591 324.529L685.942 311.057L700.454 296.734C708.034 289.28 718.3 285.097 729 285.103C734.306 285.102 739.56 286.133 744.462 288.136C749.364 290.14 753.818 293.077 757.569 296.78L772.081 311.103L758.432 324.575L742.055 308.468L737.392 297.114L734.548 298.264L738.581 308.618L719.384 308.56Z" fill="white"/>
<path d="M799.543 168C793.397 168.135 787.548 170.64 783.25 174.978C778.951 179.316 776.544 185.142 776.544 191.21C776.544 197.278 778.951 203.104 783.25 207.442C787.548 211.78 793.397 214.285 799.543 214.42C805.689 214.285 811.538 211.78 815.836 207.442C820.134 203.104 822.541 197.278 822.541 191.21C822.541 185.142 820.134 179.316 815.836 174.978C811.538 170.64 805.689 168.135 799.543 168ZM799.543 200.73C797.634 200.73 795.767 200.171 794.18 199.124C792.592 198.077 791.355 196.588 790.625 194.847C789.895 193.106 789.705 191.19 790.078 189.342C790.451 187.494 791.372 185.796 792.723 184.465C794.073 183.133 795.794 182.227 797.667 181.86C799.54 181.494 801.481 181.684 803.244 182.407C805.008 183.13 806.514 184.353 807.573 185.921C808.632 187.489 809.196 189.331 809.194 191.216C809.191 193.74 808.173 196.16 806.363 197.944C804.554 199.728 802.101 200.73 799.543 200.73Z" fill="white"/>
</g>
<path d="M1379.83 1H77.1748L1 76.2837V652.716C1 672.683 9.02554 691.831 23.3111 705.95C30.3846 712.941 38.782 718.486 48.024 722.269C57.2659 726.053 67.1714 728 77.1748 728H1379.83L1456 652.716V76.2837C1456 66.3973 1454.03 56.6077 1450.2 47.4739C1446.37 38.3401 1440.76 30.0408 1433.69 23.0501C1426.62 16.0594 1418.22 10.514 1408.98 6.73063C1399.73 2.94727 1389.83 1 1379.83 1V1Z" stroke="white" stroke-miterlimit="10"/>
<defs>
<clipPath id="clip0_153_446">
<rect width="874" height="392" fill="white" transform="translate(292 168)"/>
</clipPath>
</defs>
</svg>
