<svg width="62" height="62" viewBox="0 0 62 62" fill="none" xmlns="http://www.w3.org/2000/svg">
<path d="M46.095 22.9679C46.1105 23.3199 46.1105 23.6559 46.1105 24.0079C46.1259 34.68 38.2851 47 23.9464 47C19.7173 47 15.5654 45.736 12 43.368C12.6174 43.448 13.2348 43.48 13.8522 43.48C17.3558 43.48 20.7669 42.264 23.5297 40.008C20.1958 39.944 17.2632 37.688 16.2445 34.392C17.4175 34.632 18.6214 34.584 19.7636 34.248C16.1365 33.512 13.528 30.1999 13.5126 26.3439C13.5126 26.3119 13.5126 26.2799 13.5126 26.2479C14.593 26.8719 15.8123 27.2239 17.0471 27.2559C13.6361 24.8879 12.5711 20.1679 14.6393 16.4719C18.606 21.5279 24.4403 24.5839 30.7067 24.9199C30.0739 22.1199 30.9383 19.1759 32.9602 17.1919C36.0934 14.1359 41.0325 14.2959 43.9959 17.5439C45.7401 17.1919 47.4224 16.5199 48.9504 15.5759C48.3639 17.4479 47.1446 19.0319 45.524 20.0399C47.0674 19.8479 48.58 19.4159 50 18.7759C48.9504 20.4079 47.6231 21.8159 46.095 22.9679Z" fill="white"/>
<path d="M53.5184 60.8769L8.52365 61C7.53536 61.0027 6.55626 60.8102 5.64259 60.4334C4.72892 60.0567 3.89869 59.5031 3.19959 58.8044C2.50048 58.1058 1.94627 57.2759 1.5688 56.3625C1.19133 55.449 0.998035 54.47 1.00002 53.4816L1.12306 8.48236L8.65269 1L53.3953 1.12306C55.3768 1.13018 57.2751 1.92098 58.6756 3.32282C60.0762 4.72467 60.8654 6.62371 60.871 8.60542L61 53.3735L53.5184 60.8769Z" stroke="white" stroke-width="1.5" stroke-miterlimit="10"/>
</svg>
