<svg width="62" height="62" viewBox="0 0 62 62" fill="none" xmlns="http://www.w3.org/2000/svg">
<path d="M26.1985 11.5839L26.6474 13.4022C24.8782 13.8394 23.1848 14.5405 21.6243 15.4819L20.664 13.8738C22.3817 12.8336 24.248 12.0614 26.1985 11.5839ZM35.8015 11.5839L35.3526 13.4022C37.1218 13.8394 38.8151 14.5405 40.3756 15.4819L41.3473 13.8738C39.6251 12.8345 37.7552 12.0624 35.8015 11.5839ZM13.8738 20.6584C12.8345 22.3786 12.0624 24.2466 11.5838 26.1985L13.4022 26.6474C13.8394 24.8782 14.5405 23.1849 15.4818 21.6243L13.8738 20.6584ZM12.8737 31C12.8736 30.0908 12.942 29.1828 13.0783 28.2839L11.2259 27.9998C10.9247 29.9867 10.9247 32.0076 11.2259 33.9945L13.0783 33.7161C12.9422 32.8171 12.8738 31.9092 12.8737 31ZM41.3359 48.1205L40.3756 46.5181C38.8176 47.4603 37.126 48.1615 35.3582 48.5978L35.8071 50.4161C37.7553 49.934 39.6193 49.1601 41.3359 48.1205ZM49.1262 31C49.1262 31.9092 49.0578 32.8171 48.9217 33.7161L50.7741 33.9945C51.0752 32.0076 51.0752 29.9867 50.7741 27.9998L48.9217 28.2839C49.058 29.1828 49.1264 30.0908 49.1262 31ZM50.4161 35.7958L48.5978 35.3469C48.1616 37.1183 47.4604 38.8136 46.5181 40.3757L48.1262 41.3416C49.1664 39.6199 49.9386 37.7499 50.4161 35.7958ZM33.7161 48.9217C31.9156 49.1945 30.0843 49.1945 28.2839 48.9217L28.0054 50.7741C29.9904 51.0753 32.0095 51.0753 33.9945 50.7741L33.7161 48.9217ZM45.5919 41.7508C44.5119 43.2153 43.2169 44.5084 41.7507 45.5862L42.8644 47.0977C44.4794 45.9089 45.908 44.4859 47.1034 42.8758L45.5919 41.7508ZM41.7507 16.4081C43.217 17.488 44.512 18.7829 45.5919 20.2492L47.1034 19.1242C45.9123 17.5126 44.4874 16.0877 42.8758 14.8966L41.7507 16.4081ZM16.408 20.2492C17.488 18.7829 18.7829 17.488 20.2492 16.4081L19.1241 14.8966C17.5126 16.0877 16.0877 17.5126 14.8966 19.1242L16.408 20.2492ZM48.1262 20.6584L46.5181 21.6243C47.4603 23.1824 48.1615 24.874 48.5978 26.6417L50.4161 26.1928C49.9375 24.2427 49.1654 22.3766 48.1262 20.6584ZM28.2839 13.0783C30.0843 12.8055 31.9156 12.8055 33.7161 13.0783L33.9945 11.2259C32.0095 10.9247 29.9904 10.9247 28.0054 11.2259L28.2839 13.0783ZM17.3683 47.5977L13.4988 48.4955L14.4022 44.6259L12.5782 44.1998L11.6748 48.0694C11.6182 48.3093 11.6096 48.558 11.6492 48.8013C11.6889 49.0445 11.7762 49.2776 11.906 49.4871C12.0358 49.6966 12.2057 49.8785 12.4058 50.0223C12.606 50.1661 12.8326 50.269 13.0726 50.3252C13.3533 50.3877 13.6442 50.3877 13.9249 50.3252L17.7945 49.4331L17.3683 47.5977ZM12.9646 42.5292L14.7943 42.9497L15.4193 40.2677C14.5066 38.7366 13.8267 37.0781 13.4022 35.3469L11.5838 35.7958C11.9928 37.4529 12.6115 39.0512 13.4249 40.5518L12.9646 42.5292ZM21.7152 46.5863L19.0332 47.2114L19.4594 49.041L21.4311 48.5808C22.9306 49.3966 24.5292 50.0154 26.1871 50.4218L26.636 48.6035C24.9102 48.1734 23.2576 47.4898 21.7323 46.575L21.7152 46.5863ZM31 14.7489C22.0221 14.7545 14.7545 22.0335 14.7545 31.0057C14.7595 34.0617 15.6239 37.0546 17.249 39.6426L15.6864 46.3136L22.3516 44.751C29.9488 49.5297 39.9836 47.2511 44.7623 39.6597C49.541 32.0683 47.2682 22.0335 39.6767 17.249C37.0778 15.6147 34.07 14.748 31 14.7489Z" fill="white"/>
<path d="M53.5184 60.8769L8.52365 61C7.53536 61.0027 6.55626 60.8102 5.64259 60.4334C4.72892 60.0567 3.89869 59.5031 3.19959 58.8044C2.50048 58.1058 1.94627 57.2759 1.5688 56.3625C1.19133 55.449 0.998035 54.47 1.00002 53.4816L1.12306 8.48236L8.65269 1L53.3953 1.12306C55.3768 1.13018 57.2751 1.92098 58.6756 3.32282C60.0762 4.72467 60.8654 6.62371 60.871 8.60542L61 53.3735L53.5184 60.8769Z" stroke="white" stroke-width="1.5" stroke-miterlimit="10"/>
</svg>
