<svg width="62" height="62" viewBox="0 0 62 62" fill="none" xmlns="http://www.w3.org/2000/svg">
<path fill-rule="evenodd" clip-rule="evenodd" d="M14.3951 29.8222C24.7309 25.3191 31.6231 22.3503 35.0716 20.916C44.9178 16.8206 46.9637 16.1092 48.2973 16.0857C48.5906 16.0805 49.2463 16.1532 49.6711 16.4979C50.0298 16.789 50.1285 17.1821 50.1757 17.4581C50.223 17.734 50.2818 18.3626 50.235 18.8538C49.7015 24.46 47.3927 38.0649 46.2182 44.344C45.7212 47.0009 44.7425 47.8918 43.7951 47.9789C41.7362 48.1684 40.1728 46.6183 38.1786 45.3111C35.0581 43.2655 33.2952 41.9922 30.2662 39.9962C26.7657 37.6894 29.035 36.4215 31.0299 34.3495C31.552 33.8073 40.6237 25.5559 40.7992 24.8074C40.8212 24.7137 40.8416 24.3648 40.6343 24.1805C40.427 23.9963 40.121 24.0593 39.9002 24.1094C39.5872 24.1804 34.6022 27.4753 24.9451 33.9941C23.5302 34.9657 22.2485 35.4391 21.1002 35.4143C19.8343 35.387 17.3992 34.6986 15.5889 34.1101C13.3685 33.3884 11.6038 33.0068 11.7575 31.781C11.8375 31.1426 12.7167 30.4896 14.3951 29.8222Z" fill="white"/>
<path d="M53.5184 60.8769L8.52365 61C7.53536 61.0027 6.55626 60.8102 5.64259 60.4334C4.72892 60.0567 3.89869 59.5031 3.19959 58.8044C2.50048 58.1058 1.94627 57.2759 1.5688 56.3625C1.19133 55.449 0.998035 54.47 1.00002 53.4816L1.12306 8.48236L8.65269 1L53.3953 1.12306C55.3768 1.13018 57.2751 1.92098 58.6756 3.32282C60.0762 4.72467 60.8654 6.62371 60.871 8.60542L61 53.3735L53.5184 60.8769Z" stroke="white" stroke-width="1.5" stroke-miterlimit="10"/>
</svg>
