<svg width="62" height="62" viewBox="0 0 62 62" fill="none" xmlns="http://www.w3.org/2000/svg">
<path d="M44.7359 19.6428C42.2096 18.4837 39.5005 17.6296 36.6679 17.1405C36.6163 17.131 36.5648 17.1546 36.5382 17.2018C36.1898 17.8215 35.8039 18.6299 35.5336 19.2653C32.4871 18.8092 29.4561 18.8092 26.472 19.2653C26.2017 18.6158 25.8018 17.8215 25.4518 17.2018C25.4252 17.1562 25.3737 17.1326 25.3221 17.1405C22.4911 17.6281 19.782 18.4821 17.2541 19.6428C17.2322 19.6523 17.2135 19.668 17.201 19.6885C12.0624 27.3654 10.6548 34.8537 11.3453 42.2491C11.3484 42.2853 11.3688 42.3199 11.3969 42.3419C14.7872 44.8316 18.0713 46.3431 21.2944 47.345C21.3459 47.3608 21.4006 47.3419 21.4334 47.2994C22.1959 46.2582 22.8755 45.1604 23.4582 44.0059C23.4926 43.9383 23.4598 43.8581 23.3895 43.8313C22.3115 43.4224 21.285 42.9238 20.2976 42.3576C20.2195 42.312 20.2132 42.2003 20.2851 42.1468C20.4929 41.9911 20.7007 41.8291 20.8991 41.6655C20.935 41.6357 20.985 41.6294 21.0272 41.6482C27.5141 44.6099 34.5368 44.6099 40.9472 41.6482C40.9894 41.6278 41.0394 41.6341 41.0768 41.664C41.2753 41.8275 41.4831 41.9911 41.6924 42.1468C41.7643 42.2003 41.7596 42.312 41.6815 42.3576C40.6941 42.9348 39.6676 43.4224 38.588 43.8298C38.5177 43.8565 38.4865 43.9383 38.5209 44.0059C39.1161 45.1588 39.7957 46.2566 40.5441 47.2978C40.5753 47.3419 40.6316 47.3608 40.6831 47.345C43.9219 46.3431 47.2059 44.8316 50.5962 42.3419C50.6259 42.3199 50.6447 42.2868 50.6478 42.2507C51.4743 33.7007 49.2635 26.2739 44.7874 19.69C44.7765 19.668 44.7578 19.6523 44.7359 19.6428ZM24.4269 37.7461C22.4739 37.7461 20.8647 35.9531 20.8647 33.7511C20.8647 31.5491 22.4427 29.7561 24.4269 29.7561C26.4267 29.7561 28.0203 31.5649 27.989 33.7511C27.989 35.9531 26.411 37.7461 24.4269 37.7461ZM37.5975 37.7461C35.6446 37.7461 34.0354 35.9531 34.0354 33.7511C34.0354 31.5491 35.6133 29.7561 37.5975 29.7561C39.5973 29.7561 41.1909 31.5649 41.1597 33.7511C41.1597 35.9531 39.5973 37.7461 37.5975 37.7461Z" fill="white"/>
<path d="M53.5184 60.8769L8.52365 61C7.53536 61.0027 6.55626 60.8102 5.64259 60.4334C4.72892 60.0567 3.89869 59.5031 3.19959 58.8044C2.50048 58.1058 1.94627 57.2759 1.5688 56.3625C1.19133 55.449 0.998035 54.47 1.00002 53.4816L1.12306 8.48236L8.65269 1L53.3953 1.12306C55.3768 1.13018 57.2751 1.92098 58.6756 3.32282C60.0762 4.72467 60.8654 6.62371 60.871 8.60542L61 53.3735L53.5184 60.8769Z" stroke="white" stroke-width="1.5" stroke-miterlimit="10"/>
</svg>
