<svg width="62" height="62" viewBox="0 0 62 62" fill="none" xmlns="http://www.w3.org/2000/svg">
<path fill-rule="evenodd" clip-rule="evenodd" d="M31 11C25.5693 11 24.8865 11.0238 22.7507 11.1191C20.6229 11.2144 19.1699 11.5558 17.8996 12.048C16.5816 12.5562 15.47 13.2469 14.3585 14.3585C13.2469 15.47 12.5641 16.5895 12.048 17.8996C11.5558 19.1699 11.2144 20.6229 11.1191 22.7586C11.0238 24.8865 11 25.5693 11 31C11 36.4307 11.0238 37.1135 11.1191 39.2493C11.2144 41.3771 11.5558 42.8301 12.048 44.1084C12.5562 45.4264 13.2469 46.5379 14.3585 47.6495C15.47 48.761 16.5895 49.4438 17.8996 49.9599C19.1699 50.4522 20.6229 50.7936 22.7586 50.8888C24.8944 50.9841 25.5693 51.0079 31.008 51.0079C36.4466 51.0079 37.1215 50.9841 39.2573 50.8888C41.3851 50.7936 42.8381 50.4522 44.1163 49.9599C45.4343 49.4518 46.5459 48.761 47.6574 47.6495C48.769 46.5379 49.4518 45.4184 49.9679 44.1084C50.4601 42.838 50.8015 41.3851 50.8968 39.2493C50.9921 37.1135 51.0159 36.4387 51.0159 31C51.0159 25.5613 50.9921 24.8865 50.8968 22.7507C50.8015 20.6229 50.4601 19.1699 49.9679 17.8916C49.4597 16.5736 48.769 15.4621 47.6574 14.3505C46.5459 13.239 45.4264 12.5562 44.1163 12.0401C42.846 11.5478 41.393 11.2064 39.2573 11.1112C37.1136 11.0238 36.4307 11 31 11ZM31 20.734C25.3311 20.734 20.7261 25.3311 20.7261 31.0079C20.7261 36.6848 25.3231 41.2819 31 41.2819C36.6769 41.2819 41.2739 36.6848 41.2739 31.0079C41.2739 25.3311 36.6769 20.734 31 20.734ZM31 37.6693C27.316 37.6693 24.3307 34.684 24.3307 31C24.3307 27.316 27.316 24.3307 31 24.3307C34.684 24.3307 37.6693 27.316 37.6693 31C37.6693 34.684 34.684 37.6693 31 37.6693ZM44.0766 20.3212C44.0766 21.6454 43.0031 22.7189 41.6788 22.7189C40.3546 22.7189 39.2811 21.6454 39.2811 20.3212C39.2811 18.9969 40.3546 17.9234 41.6788 17.9234C43.0031 17.9234 44.0766 18.9969 44.0766 20.3212Z" fill="white"/>
<path d="M53.5184 60.8769L8.52365 61C7.53536 61.0027 6.55626 60.8102 5.64259 60.4334C4.72892 60.0567 3.89869 59.5031 3.19959 58.8044C2.50048 58.1058 1.94627 57.2759 1.5688 56.3625C1.19133 55.449 0.998035 54.47 1.00002 53.4816L1.12306 8.48236L8.65269 1L53.3953 1.12306C55.3768 1.13018 57.2751 1.92098 58.6756 3.32282C60.0762 4.72467 60.8654 6.62371 60.871 8.60542L61 53.3735L53.5184 60.8769Z" stroke="white" stroke-width="1.5" stroke-miterlimit="10"/>
</svg>
