<svg width="662" height="109" viewBox="0 0 662 109" fill="none" xmlns="http://www.w3.org/2000/svg">
<path d="M529.009 73.437H506.012L502.732 87.9232H489.413L505.509 20.3208H529.462L545.557 87.9232H532.288L529.009 73.437ZM508.728 61.2645H526.212L518.386 26.6887H516.645L508.728 61.2645Z" fill="white"/>
<path d="M599.509 87.9135H586.763V67.6328C586.823 66.2747 586.395 64.9398 585.556 63.8704C585.036 63.344 584.404 62.9407 583.708 62.69C583.012 62.4394 582.268 62.3477 581.532 62.4218H566.865V87.9135H554.119V20.3111H580.003C583.122 20.254 586.227 20.7443 589.177 21.7597C591.639 22.6215 593.891 23.9927 595.787 25.7837C597.525 27.4615 598.896 29.4828 599.811 31.719C600.748 34.018 601.224 36.4793 601.209 38.9621V41.2457C601.213 43.992 600.442 46.6837 598.986 49.012C597.353 51.5503 594.948 53.4969 592.125 54.565V56.3355C594.182 56.4653 596.105 57.399 597.479 58.935C598.853 60.471 599.568 62.4859 599.469 64.5444L599.509 87.9135ZM566.865 50.2996H579.037C582.122 50.2996 584.469 49.5753 586.079 48.1267C586.909 47.3363 587.556 46.3738 587.975 45.3068C588.394 44.2398 588.574 43.094 588.503 41.9499V40.793C588.513 39.7067 588.304 38.6296 587.889 37.6256C587.475 36.6215 586.862 35.7111 586.089 34.9482C584.479 33.3051 582.132 32.4836 579.047 32.4836H566.875L566.865 50.2996Z" fill="white"/>
<path d="M647.313 40.984C647.316 39.6553 647.037 38.3411 646.497 37.1275C645.956 35.9139 645.164 34.8284 644.174 33.9421C642.082 31.9301 639.144 30.9241 635.342 30.9241C632.65 30.7921 629.983 31.4948 627.706 32.9361C626.822 33.5179 626.102 34.3158 625.612 35.2541C625.123 36.1924 624.881 37.2401 624.91 38.298C624.892 39.382 625.123 40.4555 625.584 41.4367C626.129 42.4737 626.947 43.343 627.948 43.9517C629.332 44.8211 630.828 45.498 632.394 45.9637C634.706 46.657 637.057 47.208 639.436 47.6135C646.518 48.9011 651.927 51.0573 655.663 54.082C659.398 57.1067 661.249 61.5464 661.216 67.4013V68.5582C661.26 71.4956 660.684 74.4093 659.526 77.1091C658.422 79.6255 656.757 81.8556 654.657 83.6279C652.38 85.5084 649.755 86.9203 646.931 87.7826C639.731 89.8528 632.073 89.702 624.96 87.35C621.803 86.2316 618.922 84.4515 616.51 82.1289C614.26 79.9221 612.514 77.256 611.389 74.3124C610.204 71.193 609.607 67.8811 609.629 64.5443V61.647H622.375V63.9708C622.375 67.9948 623.552 71.2274 625.906 73.6686C628.26 76.1098 631.911 77.317 636.861 77.2901C640.724 77.2901 643.591 76.4552 645.462 74.7852C646.344 74.0472 647.052 73.1235 647.535 72.0801C648.019 71.0366 648.266 69.8993 648.259 68.7493C648.265 67.6756 648.067 66.6105 647.675 65.6106C647.251 64.5489 646.558 63.6161 645.663 62.9045C644.468 61.9715 643.129 61.2378 641.7 60.7316C639.635 59.9817 637.502 59.4326 635.332 59.0918C632.154 58.5684 629.02 57.8085 625.956 56.8183C623.312 55.9782 620.82 54.7217 618.572 53.0961C616.502 51.586 614.828 49.5981 613.693 47.3016C612.462 44.6449 611.866 41.738 611.953 38.8111V38.2276C611.939 35.5903 612.52 32.9838 613.653 30.6022C614.782 28.246 616.397 26.1549 618.391 24.4657C620.553 22.664 623.043 21.2975 625.725 20.4417C628.83 19.4395 632.079 18.9502 635.342 18.9931C638.954 18.9326 642.55 19.5046 645.965 20.6832C648.833 21.68 651.474 23.2396 653.731 25.2705C655.769 27.1261 657.384 29.3971 658.469 31.9301C659.526 34.4391 660.067 37.135 660.059 39.8573V43.2576H647.313V40.984Z" fill="white"/>
<path d="M155.556 20.3108H168.302V47.9352H190.132V20.3108H202.878V87.9132H190.132V60.1077H168.302V87.9132H155.556V20.3108Z" fill="white"/>
<path d="M216.69 20.3108H259.374V32.4832H229.436V47.9352H258.217V60.1077H229.436V75.7508H260.551V87.9132H216.69V20.3108Z" fill="white"/>
<path d="M275.792 20.3108H288.538V75.7508H319.25V87.9132H275.792V20.3108Z" fill="white"/>
<path d="M344.169 20.3108V87.9132H331.413V20.3108H344.169Z" fill="white"/>
<path d="M405.011 20.3108V64.5743C405.011 72.3003 402.965 78.3362 398.874 82.6821C394.783 87.0279 388.714 89.2176 380.666 89.2512C372.618 89.2512 366.552 87.0615 362.468 82.6821C358.383 78.3027 356.338 72.2667 356.331 64.5743V20.3108H369.077V64.5743C369.077 68.5982 370.013 71.7201 371.884 73.94C373.745 76.2035 376.682 77.3201 380.666 77.3201C384.65 77.3201 387.587 76.2035 389.458 73.94C391.329 71.6765 392.255 68.568 392.255 64.5743V20.3108H405.011Z" fill="white"/>
<path d="M465.853 20.3513L468.941 71.7372V80.4792H471.265V71.7372L472.815 20.3513H484.403L482.09 87.9537H459.867L456.779 36.5779V27.8862H454.465V36.5779L451.377 87.9537H430.885L427.797 36.5779V27.8862H425.533V36.5779L423.984 87.9537H412.345L414.668 20.3513H436.881L439.969 71.7271V81.0023H442.283V71.7271L445.371 20.3513H465.853Z" fill="white"/>
<path d="M9.94923 14.4862L8.30947 15.1602L11.0659 21.7293V35.0587H4.33448e-06V23.2484C-0.00186163 20.1952 0.59875 17.1716 1.76743 14.3509C2.9361 11.5302 4.64987 8.96778 6.81054 6.81054C8.96778 4.64987 11.5302 2.9361 14.3509 1.76743C17.1716 0.59875 20.1952 -0.00186163 23.2484 4.33448e-06H35.0587V11.0659H21.7293L15.1602 8.30947L14.4862 9.94923L9.94923 14.4862Z" fill="white"/>
<path d="M98.285 93.7482L99.9248 93.0742L97.1281 86.5152V73.1758H108.194V84.9861C108.192 91.1515 105.743 97.0639 101.383 101.424C97.0234 105.783 91.111 108.233 84.9456 108.234H73.1755V97.1686H86.5149L93.084 99.9653L93.7581 98.3255L98.285 93.7482Z" fill="white"/>
<path d="M14.4862 98.2852L15.1602 99.925L21.7293 97.1284H35.0587V108.194H23.2484C17.083 108.192 11.1706 105.743 6.81054 101.384C2.45658 97.0366 0.00691024 91.1386 0 84.9861L0 73.1758H11.0659V86.5152L8.30946 93.0742L9.94922 93.7482L14.4862 98.2852Z" fill="white"/>
<path d="M48.5892 26.2966L50.9029 32.3325L49.2934 32.9864L46.6074 26.357L37.2215 16.9409L29.3647 24.7876L37.7245 33.1373C39.8806 35.2968 42.4413 37.0099 45.2602 38.1785C48.0791 39.3472 51.1008 39.9484 54.1523 39.9479C57.2055 39.9497 60.2291 39.3491 63.0498 38.1804C65.8705 37.0118 68.4329 35.298 70.5901 33.1373L78.9499 24.7876L71.0931 16.9409L61.6268 26.357L58.9609 32.9864L57.3413 32.3024L59.6651 26.2664L48.5892 26.2966Z" fill="white"/>
<path d="M26.2865 59.6452L32.3224 57.3314L33.0065 58.9611L26.3569 61.627L16.9308 71.0531L24.7876 78.9099L33.1373 70.5501C35.2979 68.3928 37.0117 65.8305 38.1804 63.0098C39.349 60.1891 39.9497 57.1655 39.9478 54.1123C39.9483 51.0607 39.3471 48.039 38.1784 45.2202C37.0098 42.4013 35.2967 39.8405 33.1373 37.6845L24.7876 29.3247L16.9408 37.2217L26.3569 46.6478L32.9864 49.2936L32.3023 50.9233L26.2664 48.6095L26.2865 59.6452Z" fill="white"/>
<path d="M81.9378 59.6452L75.9018 57.3314L75.2178 58.9611L81.8472 61.627L91.2633 71.0531L83.497 78.9099L75.1473 70.5501C72.9788 68.3982 71.2564 65.8393 70.0791 63.0202C68.9017 60.2011 68.2926 57.1774 68.2865 54.1223C68.2846 51.0691 68.8853 48.0455 70.0539 45.2248C71.2226 42.4041 72.9364 39.8417 75.097 37.6845L83.497 29.3247L91.2935 37.2217L81.8774 46.6478L75.2479 49.2936L75.932 50.9233L81.9679 48.6095L81.9378 59.6452Z" fill="white"/>
<path d="M48.5891 81.9376L50.9029 75.9017L49.2933 75.2478L46.6375 81.8773L37.2215 91.2933L29.3245 83.4969L37.6842 75.1472C39.8403 72.9877 42.401 71.2747 45.2199 70.106C48.0388 68.9374 51.0605 68.3361 54.112 68.3367C57.1635 68.3361 60.1852 68.9374 63.0041 70.106C65.823 71.2747 68.3837 72.9877 70.5398 75.1472L78.9096 83.4969L71.0528 91.3436L61.6267 81.9276L58.9609 75.2478L57.3412 75.9319L59.6651 81.9678L48.5891 81.9376Z" fill="white"/>
<path d="M94.7036 0C91.1151 0 87.6736 1.42553 85.1361 3.963C82.5986 6.50047 81.1731 9.94202 81.1731 13.5305C81.1731 17.1191 82.5986 20.5606 85.1361 23.0981C87.6736 25.6355 91.1151 27.0611 94.7036 27.0611C98.2922 27.0611 101.734 25.6355 104.271 23.0981C106.809 20.5606 108.234 17.1191 108.234 13.5305C108.234 9.94202 106.809 6.50047 104.271 3.963C101.734 1.42553 98.2922 0 94.7036 0V0ZM94.7036 19.1138C93.6053 19.1138 92.5317 18.7881 91.6185 18.1779C90.7053 17.5677 89.9936 16.7005 89.5733 15.6858C89.153 14.6711 89.043 13.5546 89.2573 12.4774C89.4715 11.4002 90.0004 10.4107 90.777 9.63412C91.5536 8.85751 92.5431 8.32863 93.6203 8.11437C94.6975 7.9001 95.814 8.01007 96.8287 8.43037C97.8434 8.85066 98.7107 9.56241 99.3208 10.4756C99.931 11.3888 100.257 12.4624 100.257 13.5607C100.257 15.0335 99.6716 16.4459 98.6302 17.4873C97.5888 18.5287 96.1764 19.1138 94.7036 19.1138Z" fill="white"/>
</svg>
