<svg width="82" height="82" viewBox="0 0 82 82" fill="none" xmlns="http://www.w3.org/2000/svg">
<path d="M7.99751 10.8411L6.77036 11.3456L8.83318 16.2617V26.2371H0.551761V17.3985C0.550365 15.1136 0.999848 12.8508 1.87446 10.7398C2.74907 8.62889 4.03161 6.71127 5.6486 5.09684V5.09684C7.26303 3.47985 9.18065 2.19731 11.2916 1.3227C13.4025 0.44809 15.6653 -0.00139319 17.9503 3.24382e-06H26.7888V8.28143H16.8135L11.8973 6.2186L11.3929 7.44576L7.99751 10.8411Z" fill="white"/>
<path d="M74.4621 70.4938L75.6906 69.9894L73.5953 65.0808V55.0979H81.8862V63.9364C81.8849 68.5505 80.0495 72.9752 76.7835 76.2381V76.2381C73.5168 79.5004 69.087 81.3336 64.4677 81.335H55.6492V73.0535H65.6435L70.5653 75.1465L71.0703 73.9193L74.4621 70.4938Z" fill="white"/>
<path d="M11.3929 73.9108L11.8973 75.1394L16.8135 73.044H26.7888V81.335H17.9503C13.3363 81.3336 8.91154 79.4983 5.6486 76.2323V76.2323C2.3902 72.9753 0.556929 68.5563 0.551758 63.9466L0.551758 55.0979H8.83318V65.0923L6.77035 70.0065L7.99751 70.5115L11.3929 73.9108Z" fill="white"/>
<path d="M36.9965 19.7942L38.7513 24.3831L37.5306 24.8802L35.4934 19.8401L28.375 12.6814L22.4163 18.647L28.7565 24.995C30.3917 26.6367 32.3338 27.9391 34.4717 28.8276C36.6096 29.7161 38.9013 30.1732 41.2157 30.1728V30.1728C43.5313 30.1742 45.8244 29.7176 47.9637 28.8291C50.103 27.9406 52.0464 26.6376 53.6825 24.995L60.0227 18.647L54.064 12.6814L46.8845 19.8401L44.8626 24.8802L43.6343 24.3602L45.3967 19.7713L36.9965 19.7942Z" fill="white"/>
<path d="M20.3426 44.86L24.9295 43.1051L25.4493 44.3411L20.3961 46.363L13.2329 53.512L19.2035 59.4707L25.5487 53.1305C27.1907 51.4944 28.493 49.551 29.3812 47.4117C30.2693 45.2724 30.7257 42.9793 30.7243 40.6637V40.6637C30.7247 38.3493 30.2678 36.0576 29.3797 33.9197C28.4916 31.7818 27.1898 29.8397 25.5487 28.2045L19.2035 21.8643L13.2406 27.8535L20.3961 35.0025L25.4341 37.0091L24.9142 38.2451L20.3273 36.4903L20.3426 44.86Z" fill="white"/>
<path d="M62.0924 44.86L57.5035 43.1051L56.9835 44.3411L62.0236 46.363L69.1823 53.512L63.2779 59.4707L56.9299 53.1305C55.2812 51.4984 53.9718 49.5577 53.0767 47.4197C52.1816 45.2816 51.7185 42.9883 51.7139 40.6713V40.6713C51.7125 38.3557 52.1691 36.0625 53.0576 33.9232C53.9461 31.7839 55.249 29.8406 56.8917 28.2045L63.2779 21.8643L69.2052 27.8535L62.0466 35.0025L57.0064 37.0091L57.5265 38.2451L62.1154 36.4903L62.0924 44.86Z" fill="white"/>
<path d="M37.027 61.5027L38.7818 56.9138L37.5611 56.4166L35.5469 61.4568L28.4055 68.6155L22.4163 62.6881L28.7565 56.3402C30.3917 54.6984 32.3338 53.396 34.4717 52.5075C36.6096 51.6191 38.9013 51.1619 41.2157 51.1624V51.1624C43.53 51.1619 45.8217 51.6191 47.9596 52.5075C50.0975 53.396 52.0397 54.6984 53.6748 56.3402L60.0227 62.6881L54.064 68.6537L46.915 61.495L44.8931 56.4166L43.6648 56.9367L45.4272 61.5256L37.027 61.5027Z" fill="white"/>
<path d="M71.6102 0C68.8848 0 66.271 1.08267 64.3438 3.00982C62.4167 4.93698 61.334 7.55077 61.334 10.2762C61.334 13.0016 62.4167 15.6154 64.3438 17.5425C66.271 19.4697 68.8848 20.5524 71.6102 20.5524V20.5524C74.3356 20.5524 76.9494 19.4697 78.8765 17.5425C80.8037 15.6154 81.8863 13.0016 81.8863 10.2762C81.8863 7.55077 80.8037 4.93698 78.8765 3.00982C76.9494 1.08267 74.3356 0 71.6102 0V0ZM71.6102 14.5165C70.776 14.5165 69.9606 14.2692 69.2671 13.8058C68.5735 13.3424 68.033 12.6837 67.7138 11.913C67.3946 11.1424 67.311 10.2944 67.4738 9.47632C67.6365 8.65822 68.0382 7.90674 68.628 7.31692C69.2178 6.7271 69.9693 6.32543 70.7874 6.1627C71.6055 5.99997 72.4535 6.08349 73.2241 6.4027C73.9947 6.72191 74.6534 7.26246 75.1168 7.95602C75.5803 8.64957 75.8276 9.46497 75.8276 10.2991C75.8276 11.4176 75.3833 12.4904 74.5923 13.2813C73.8014 14.0722 72.7287 14.5165 71.6102 14.5165V14.5165Z" fill="white"/>
</svg>
