<svg width="380" height="172" viewBox="0 0 380 172" fill="none" xmlns="http://www.w3.org/2000/svg">
<path d="M280.915 159.671H263.542L261.064 170.541H251.001L263.161 119.816H281.258L293.418 170.541H283.393L280.915 159.671ZM265.594 150.538H278.803L272.89 124.594H271.575L265.594 150.538Z" fill="white"/>
<path d="M333.68 170.541H324.093V155.325C324.139 154.306 323.817 153.304 323.185 152.502C322.794 152.107 322.319 151.804 321.795 151.616C321.272 151.428 320.712 151.359 320.159 151.415H309.126V170.541H299.539V119.82H319.008C321.355 119.777 323.69 120.145 325.909 120.906C327.761 121.553 329.455 122.582 330.881 123.926C332.188 125.184 333.219 126.701 333.907 128.379C334.613 130.104 334.97 131.95 334.959 133.813V135.527C334.962 137.587 334.382 139.607 333.287 141.354C332.059 143.258 330.25 144.719 328.126 145.52V146.848C329.673 146.946 331.12 147.646 332.154 148.799C333.187 149.951 333.725 151.463 333.65 153.007L333.68 170.541ZM309.126 142.32H318.282C320.603 142.32 322.368 141.776 323.579 140.689C324.203 140.096 324.69 139.374 325.005 138.574C325.32 137.773 325.456 136.913 325.402 136.055V135.187C325.41 134.372 325.253 133.564 324.941 132.81C324.629 132.057 324.168 131.374 323.586 130.802C322.376 129.569 320.61 128.952 318.29 128.952H309.134L309.126 142.32Z" fill="white"/>
<path d="M369.628 135.373C369.63 134.38 369.423 133.398 369.019 132.492C368.616 131.585 368.025 130.774 367.287 130.112C365.726 128.609 363.535 127.858 360.699 127.858C358.691 127.759 356.702 128.284 355.004 129.361C354.344 129.795 353.807 130.391 353.441 131.092C353.076 131.793 352.896 132.576 352.918 133.366C352.905 134.176 353.076 134.978 353.42 135.711C353.827 136.485 354.437 137.135 355.184 137.59C356.216 138.239 357.332 138.745 358.5 139.093C360.224 139.611 361.978 140.022 363.753 140.325C369.035 141.287 373.07 142.898 375.856 145.157C378.643 147.417 380.023 150.733 379.998 155.107V155.972C380.031 158.166 379.602 160.343 378.738 162.359C377.915 164.239 376.672 165.905 375.106 167.229C373.408 168.634 371.449 169.689 369.343 170.333C363.972 171.879 358.261 171.767 352.955 170.01C350.601 169.174 348.452 167.844 346.652 166.109C344.974 164.461 343.671 162.469 342.833 160.27C341.949 157.94 341.504 155.466 341.519 152.973V150.809H351.027V152.545C351.027 155.551 351.905 157.966 353.66 159.789C355.416 161.613 358.14 162.515 361.832 162.495C364.713 162.495 366.852 161.871 368.248 160.623C368.905 160.072 369.433 159.382 369.794 158.603C370.155 157.823 370.339 156.973 370.334 156.114C370.338 155.312 370.19 154.517 369.898 153.77C369.582 152.976 369.065 152.28 368.398 151.748C367.506 151.051 366.507 150.503 365.441 150.125C363.901 149.565 362.31 149.154 360.691 148.9C358.321 148.509 355.984 147.941 353.698 147.201C351.726 146.574 349.867 145.635 348.19 144.421C346.647 143.293 345.398 141.808 344.551 140.092C343.633 138.107 343.188 135.936 343.253 133.749V133.314C343.242 131.343 343.676 129.396 344.521 127.617C345.364 125.857 346.568 124.295 348.055 123.033C349.668 121.687 351.525 120.666 353.525 120.027C355.842 119.278 358.265 118.913 360.699 118.945C363.393 118.899 366.075 119.327 368.623 120.207C370.762 120.952 372.732 122.117 374.416 123.634C375.935 125.02 377.14 126.717 377.95 128.609C378.738 130.483 379.141 132.497 379.135 134.531V137.071H369.628V135.373Z" fill="white"/>
<path d="M0 119.816H9.65799V140.544H26.1993V119.816H35.8573V170.541H26.1993V149.677H9.65799V170.541H0V119.816Z" fill="white"/>
<path d="M45.915 119.816H78.2568V128.95H55.5726V140.544H77.3802V149.677H55.5726V161.415H79.1486V170.541H45.915V119.816Z" fill="white"/>
<path d="M90.5178 119.816H100.137V161.415H123.314V170.541H90.5178V119.816Z" fill="white"/>
<path d="M141.68 119.816V170.541H132.497V119.816H141.68Z" fill="white"/>
<path d="M187.595 119.816V152.946C187.595 158.729 186.052 163.246 182.965 166.499C179.878 169.752 175.298 171.391 169.225 171.416C163.153 171.416 158.576 169.777 155.494 166.499C152.412 163.221 150.868 158.703 150.863 152.946V119.816H160.481V152.946C160.481 155.958 161.187 158.294 162.599 159.956C164.003 161.65 166.219 162.486 169.225 162.486C172.231 162.486 174.448 161.65 175.86 159.956C177.272 158.262 177.97 155.935 177.97 152.946V119.816H187.595Z" fill="white"/>
<path d="M233.219 119.816L235.525 158.373V164.933H237.259V158.373L238.416 119.816H247.066L245.339 170.541H228.752L226.446 131.992V125.47H224.719V131.992L222.414 170.541H207.119L204.813 131.992V125.47H203.124V131.992L201.968 170.541H193.28L195.014 119.816H211.594L213.899 158.366V165.325H215.626V158.366L217.931 119.816H233.219Z" fill="white"/>
<path d="M156.998 10.8411L155.77 11.3456L157.833 16.2617V26.2371H149.552V17.3985C149.55 15.1136 150 12.8508 150.874 10.7398C151.749 8.62889 153.032 6.71127 154.649 5.09684V5.09684C156.263 3.47985 158.181 2.19731 160.292 1.3227C162.403 0.44809 164.665 -0.00139319 166.95 3.24382e-06H175.789V8.28143H165.813L160.897 6.2186L160.393 7.44576L156.998 10.8411Z" fill="white"/>
<path d="M223.462 70.4938L224.691 69.9894L222.595 65.0808V55.0979H230.886V63.9364C230.885 68.5505 229.05 72.9752 225.784 76.2381V76.2381C222.517 79.5004 218.087 81.3336 213.468 81.335H204.649V73.0535H214.644L219.565 75.1465L220.07 73.9193L223.462 70.4938Z" fill="white"/>
<path d="M160.393 73.9108L160.897 75.1394L165.813 73.044H175.789V81.335H166.95C162.336 81.3336 157.912 79.4983 154.649 76.2323V76.2323C151.39 72.9753 149.557 68.5563 149.552 63.9466V55.0979H157.833V65.0923L155.77 70.0065L156.998 70.5115L160.393 73.9108Z" fill="white"/>
<path d="M185.996 19.7942L187.751 24.3831L186.531 24.8802L184.493 19.8401L177.375 12.6814L171.416 18.647L177.756 24.995C179.392 26.6367 181.334 27.9391 183.472 28.8276C185.61 29.7161 187.901 30.1732 190.216 30.1728V30.1728C192.531 30.1742 194.824 29.7176 196.964 28.8291C199.103 27.9406 201.046 26.6376 202.682 24.995L209.023 18.647L203.064 12.6814L195.884 19.8401L193.863 24.8802L192.634 24.3602L194.397 19.7713L185.996 19.7942Z" fill="white"/>
<path d="M169.343 44.86L173.929 43.1051L174.449 44.3411L169.396 46.363L162.233 53.512L168.204 59.4707L174.549 53.1305C176.191 51.4944 177.493 49.551 178.381 47.4117C179.269 45.2724 179.726 42.9793 179.724 40.6637V40.6637C179.725 38.3493 179.268 36.0576 178.38 33.9197C177.492 31.7818 176.19 29.8397 174.549 28.2045L168.204 21.8643L162.241 27.8535L169.396 35.0025L174.434 37.0091L173.914 38.2451L169.327 36.4903L169.343 44.86Z" fill="white"/>
<path d="M211.092 44.86L206.504 43.1051L205.983 44.3411L211.024 46.363L218.182 53.512L212.278 59.4707L205.93 53.1305C204.281 51.4984 202.972 49.5577 202.077 47.4197C201.182 45.2816 200.718 42.9883 200.714 40.6713V40.6713C200.712 38.3557 201.169 36.0625 202.058 33.9232C202.946 31.7839 204.249 29.8406 205.892 28.2045L212.278 21.8643L218.205 27.8535L211.047 35.0025L206.006 37.0091L206.526 38.2451L211.115 36.4903L211.092 44.86Z" fill="white"/>
<path d="M186.027 61.5027L187.782 56.9138L186.561 56.4166L184.547 61.4568L177.406 68.6155L171.416 62.6881L177.756 56.3402C179.392 54.6984 181.334 53.396 183.472 52.5075C185.61 51.6191 187.901 51.1619 190.216 51.1624V51.1624C192.53 51.1619 194.822 51.6191 196.96 52.5075C199.098 53.396 201.04 54.6984 202.675 56.3402L209.023 62.6881L203.064 68.6537L195.915 61.495L193.893 56.4166L192.665 56.9367L194.427 61.5256L186.027 61.5027Z" fill="white"/>
<path d="M220.61 0C217.885 0 215.271 1.08267 213.344 3.00982C211.417 4.93698 210.334 7.55077 210.334 10.2762C210.334 13.0016 211.417 15.6154 213.344 17.5425C215.271 19.4697 217.885 20.5524 220.61 20.5524V20.5524C223.336 20.5524 225.949 19.4697 227.877 17.5425C229.804 15.6154 230.886 13.0016 230.886 10.2762C230.886 7.55077 229.804 4.93698 227.877 3.00982C225.949 1.08267 223.336 0 220.61 0V0ZM220.61 14.5165C219.776 14.5165 218.961 14.2692 218.267 13.8058C217.574 13.3424 217.033 12.6837 216.714 11.913C216.395 11.1424 216.311 10.2944 216.474 9.47632C216.636 8.65822 217.038 7.90674 217.628 7.31692C218.218 6.7271 218.969 6.32543 219.787 6.1627C220.605 5.99997 221.453 6.08349 222.224 6.4027C222.995 6.72191 223.653 7.26246 224.117 7.95602C224.58 8.64957 224.828 9.46497 224.828 10.2991C224.828 11.4176 224.383 12.4904 223.592 13.2813C222.801 14.0722 221.729 14.5165 220.61 14.5165V14.5165Z" fill="white"/>
</svg>
