<svg width="380" height="54" viewBox="0 0 380 54" fill="none" xmlns="http://www.w3.org/2000/svg">
<path d="M280.915 41.6715H263.542L261.064 52.5411H251.001L263.161 1.81616H281.258L293.418 52.5411H283.393L280.915 41.6715ZM265.594 32.538H278.803L272.89 6.59427H271.575L265.594 32.538Z" fill="white"/>
<path d="M333.68 52.5411H324.093V37.3247C324.139 36.3056 323.817 35.3041 323.185 34.5018C322.794 34.1068 322.319 33.8042 321.795 33.6161C321.272 33.4281 320.712 33.3593 320.159 33.4149H309.126V52.5411H299.539V1.81951H319.008C321.355 1.77668 323.69 2.14455 325.909 2.90641C327.761 3.55301 329.455 4.58177 330.881 5.92555C332.188 7.18443 333.219 8.701 333.907 10.3788C334.613 12.1037 334.97 13.9504 334.959 15.8132V17.5266C334.962 19.5871 334.382 21.6067 333.287 23.3536C332.059 25.2581 330.25 26.7186 328.126 27.52V28.8484C329.673 28.9457 331.12 29.6463 332.154 30.7987C333.187 31.9512 333.725 33.463 333.65 35.0075L333.68 52.5411ZM309.126 24.3197H318.282C320.603 24.3197 322.368 23.7762 323.579 22.6893C324.203 22.0963 324.69 21.3742 325.005 20.5736C325.32 19.773 325.456 18.9134 325.402 18.055V17.187C325.41 16.3719 325.253 15.5637 324.941 14.8104C324.629 14.0571 324.168 13.374 323.586 12.8017C322.376 11.5688 320.61 10.9524 318.29 10.9524H309.134L309.126 24.3197Z" fill="white"/>
<path d="M369.628 17.3726C369.63 16.3801 369.423 15.3983 369.019 14.4917C368.616 13.5851 368.025 12.7742 367.287 12.1121C365.726 10.6091 363.535 9.85755 360.699 9.85755C358.691 9.7589 356.702 10.2838 355.004 11.3606C354.344 11.7952 353.807 12.3912 353.441 13.0922C353.076 13.7932 352.896 14.5758 352.918 15.3661C352.905 16.1758 353.076 16.9778 353.42 17.7108C353.827 18.4855 354.437 19.1349 355.184 19.5896C356.216 20.2391 357.332 20.7448 358.5 21.0926C360.224 21.6106 361.978 22.0222 363.753 22.3251C369.035 23.287 373.07 24.8978 375.856 27.1573C378.643 29.4168 380.023 32.7335 379.998 37.1073V37.9715C380.031 40.1659 379.602 42.3425 378.738 44.3593C377.915 46.2393 376.672 47.9052 375.106 49.2291C373.408 50.6339 371.449 51.6887 369.343 52.3329C363.972 53.8794 358.261 53.7668 352.955 52.0097C350.601 51.1742 348.452 49.8444 346.652 48.1094C344.974 46.4608 343.671 44.4691 342.833 42.2701C341.949 39.9398 341.504 37.4657 341.519 34.973V32.8086H351.027V34.5446C351.027 37.5507 351.905 39.9655 353.66 41.7892C355.416 43.6128 358.14 44.5147 361.832 44.4946C364.713 44.4946 366.852 43.8709 368.248 42.6234C368.905 42.072 369.433 41.382 369.794 40.6025C370.155 39.823 370.339 38.9734 370.334 38.1143C370.338 37.3122 370.19 36.5165 369.898 35.7696C369.582 34.9764 369.065 34.2796 368.398 33.748C367.506 33.0511 366.507 32.5029 365.441 32.1248C363.901 31.5646 362.31 31.1544 360.691 30.8998C358.321 30.5088 355.984 29.9411 353.698 29.2014C351.726 28.5738 349.867 27.6352 348.19 26.4208C346.647 25.2927 345.398 23.8077 344.551 22.0921C343.633 20.1075 343.188 17.9359 343.253 15.7494V15.3135C343.242 13.3433 343.676 11.3962 344.521 9.61707C345.364 7.85687 346.568 6.29473 348.055 5.03287C349.668 3.68691 351.525 2.66614 353.525 2.02683C355.842 1.27811 358.265 0.91259 360.699 0.944655C363.393 0.899429 366.075 1.32672 368.623 2.20719C370.762 2.95185 372.732 4.11692 374.416 5.63407C375.935 7.02031 377.14 8.71677 377.95 10.6091C378.738 12.4833 379.141 14.4973 379.135 16.531V19.0711H369.628V17.3726Z" fill="white"/>
<path d="M0 1.81616H9.65799V22.544H26.1993V1.81616H35.8573V52.5411H26.1993V31.6775H9.65799V52.5411H0V1.81616Z" fill="white"/>
<path d="M45.915 1.81616H78.2568V10.9497H55.5726V22.544H77.3802V31.6775H55.5726V43.4152H79.1486V52.5411H45.915V1.81616Z" fill="white"/>
<path d="M90.5178 1.81616H100.137V43.4152H123.314V52.5411H90.5178V1.81616Z" fill="white"/>
<path d="M141.68 1.81616V52.5411H132.497V1.81616H141.68Z" fill="white"/>
<path d="M187.595 1.81616V34.9459C187.595 40.7285 186.052 45.2462 182.965 48.499C179.878 51.7517 175.298 53.3906 169.225 53.4157C163.153 53.4157 158.576 51.7768 155.494 48.499C152.412 45.2211 150.868 40.7034 150.863 34.9459V1.81616H160.481V34.9459C160.481 37.9577 161.187 40.2943 162.599 41.9558C164.003 43.65 166.219 44.4857 169.225 44.4857C172.231 44.4857 174.448 43.65 175.86 41.9558C177.272 40.2617 177.97 37.9351 177.97 34.9459V1.81616H187.595Z" fill="white"/>
<path d="M233.219 1.81616L235.525 40.3732V46.9327H237.259V40.3732L238.416 1.81616H247.066L245.339 52.5411H228.752L226.446 13.9917V7.46988H224.719V13.9917L222.414 52.5411H207.119L204.813 13.9917V7.46988H203.124V13.9917L201.968 52.5411H193.28L195.014 1.81616H211.594L213.899 40.3656V47.3252H215.626V40.3656L217.931 1.81616H233.219Z" fill="white"/>
</svg>
