<svg width="382" height="422" viewBox="0 0 382 422" fill="none" xmlns="http://www.w3.org/2000/svg">
<g clip-path="url(#clip0_160_446)">
<path d="M267.341 273.018H252.624L250.524 282.146H241.987L252.315 239.547H267.65L277.978 282.146H269.445L267.341 273.018ZM254.355 265.352H265.55L260.539 243.566H259.426L254.355 265.352Z" fill="white"/>
<path d="M312.483 282.146H304.324V269.367C304.361 268.511 304.087 267.67 303.551 266.996C303.03 266.387 302.171 266.083 300.974 266.083H291.574V282.142H283.415V239.543H299.991C301.988 239.507 303.977 239.816 305.866 240.456C307.442 241 308.884 241.864 310.1 242.992C311.211 244.05 312.089 245.324 312.676 246.732C313.279 248.18 313.584 249.731 313.574 251.296V252.758C313.584 254.492 313.096 256.192 312.165 257.665C311.121 259.263 309.583 260.49 307.777 261.164V262.258C309.093 262.34 310.324 262.929 311.204 263.897C312.083 264.865 312.539 266.134 312.475 267.431L312.483 282.146ZM291.583 258.413H299.377C301.352 258.413 302.857 257.956 303.89 257.043C304.924 256.131 305.439 254.843 305.436 253.181V252.45C305.444 251.765 305.311 251.086 305.046 250.454C304.78 249.821 304.387 249.248 303.89 248.769C302.86 247.735 301.355 247.218 299.377 247.218H291.583V258.413Z" fill="white"/>
<path d="M343.085 252.593C343.087 251.755 342.909 250.926 342.563 250.161C342.216 249.395 341.709 248.711 341.075 248.152C339.735 246.892 337.85 246.263 335.419 246.263C333.358 246.263 331.729 246.685 330.532 247.53C329.967 247.898 329.506 248.402 329.193 248.993C328.88 249.585 328.725 250.245 328.742 250.911C328.731 251.594 328.878 252.27 329.171 252.889C329.52 253.542 330.045 254.089 330.687 254.47C331.572 255.019 332.531 255.446 333.534 255.737C335.005 256.174 336.503 256.52 338.018 256.773C342.55 257.584 346.012 258.944 348.406 260.851C350.799 262.758 351.994 265.576 351.991 269.303V270.034C352.02 271.885 351.651 273.721 350.909 275.423C350.201 277.008 349.133 278.413 347.787 279.53C346.331 280.717 344.649 281.606 342.84 282.146C338.23 283.451 333.326 283.355 328.772 281.872C326.75 281.169 324.905 280.048 323.361 278.584C321.922 277.192 320.804 275.511 320.084 273.656C319.324 271.683 318.946 269.588 318.968 267.478V265.656H327.127V267.114C327.127 269.672 327.88 271.711 329.386 273.229C330.892 274.748 333.231 275.509 336.403 275.511C338.876 275.511 340.712 274.985 341.908 273.931C342.47 273.47 342.921 272.892 343.231 272.24C343.54 271.588 343.7 270.877 343.699 270.157C343.703 269.481 343.577 268.81 343.33 268.179C343.053 267.517 342.609 266.936 342.041 266.489C341.276 265.901 340.419 265.438 339.503 265.119C338.18 264.648 336.814 264.301 335.424 264.084C333.386 263.757 331.376 263.28 329.412 262.656C327.72 262.128 326.125 261.336 324.688 260.31C323.365 259.357 322.294 258.105 321.566 256.659C320.777 254.983 320.396 253.15 320.454 251.304V250.941C320.437 249.268 320.807 247.613 321.536 246.102C322.259 244.619 323.292 243.303 324.568 242.239C325.952 241.103 327.548 240.242 329.266 239.704C331.253 239.072 333.331 238.764 335.419 238.791C337.733 238.752 340.035 239.112 342.222 239.856C344.06 240.483 345.752 241.466 347.199 242.746C348.503 243.915 349.537 245.347 350.231 246.943C350.908 248.522 351.255 250.22 351.249 251.934V254.123H343.089L343.085 252.593Z" fill="white"/>
<path d="M30 239.547H38.1593V256.955H52.1417V239.547H60.301V282.146H52.1417V264.621H38.1851V282.146H30.0258L30 239.547Z" fill="white"/>
<path d="M69.1474 239.547H96.4767V247.218H77.3067V256.938H95.7295V264.604H77.3067V274.463H97.2197V282.129H69.1474V239.547Z" fill="white"/>
<path d="M106.989 239.547H115.149V274.48H134.808V282.146H106.981L106.989 239.547Z" fill="white"/>
<path d="M150.775 239.547V282.146H142.615V239.547H150.775Z" fill="white"/>
<path d="M189.733 239.547V267.439C189.733 272.308 188.423 276.121 185.804 278.88C183.184 281.638 179.299 283.018 174.149 283.021C168.996 283.021 165.109 281.642 162.49 278.884C159.87 276.126 158.562 272.312 158.565 267.444V239.551H166.724V267.444C166.724 269.957 167.321 271.929 168.515 273.36C169.709 274.791 171.585 275.496 174.145 275.473C176.698 275.473 178.574 274.769 179.77 273.36C180.967 271.952 181.565 269.979 181.565 267.444V239.551L189.733 239.547Z" fill="white"/>
<path d="M228.692 239.573L230.671 271.949V277.443H232.157V271.949L233.145 239.573H240.566L239.084 282.172H224.861L222.881 249.796V244.302H221.395V249.796L219.407 282.176H206.301L204.321 249.8V244.306H202.835V249.8L201.848 282.176H194.431L195.913 239.577H210.136L212.115 271.953V277.793H213.601V271.949L215.581 239.573H228.692Z" fill="white"/>
<path d="M162.722 148.128L161.669 148.551L163.465 152.688V161.086H156.349V153.643C156.349 149.759 157.917 146.033 160.708 143.285V143.285C163.499 140.539 167.285 138.996 171.233 138.996H178.795V145.994H170.263L166.058 144.232L165.629 145.263L162.722 148.128Z" fill="white"/>
<path d="M219.283 198.077L220.335 197.654L218.54 193.517V185.115H225.651V192.562C225.651 194.485 225.266 196.389 224.519 198.165C223.771 199.942 222.674 201.556 221.292 202.915V202.915C219.911 204.276 218.27 205.356 216.464 206.093C214.658 206.829 212.722 207.209 210.767 207.209H203.205V200.19H211.737L215.946 201.952L216.375 200.917L219.283 198.077Z" fill="white"/>
<path d="M165.625 200.933L166.054 201.969L170.258 200.207H178.791V207.205H171.233C167.285 207.203 163.499 205.659 160.708 202.911V202.911C159.325 201.551 158.229 199.936 157.481 198.159C156.733 196.382 156.348 194.477 156.349 192.553V185.111H163.46V193.512L161.669 197.65L162.717 198.072L165.625 200.933Z" fill="white"/>
<path d="M187.457 155.571L188.947 159.374L187.895 159.797L186.177 155.625L180.165 149.709L175.137 154.653L180.483 159.919C183.275 162.666 187.061 164.209 191.009 164.209C194.956 164.209 198.742 162.666 201.534 159.919L206.881 154.653L201.852 149.709L195.818 155.625L194.101 159.797L193.053 159.374L194.539 155.571H187.457Z" fill="white"/>
<path d="M173.183 176.587L177.048 175.125L177.477 176.156L173.234 177.846L167.201 183.784L172.229 188.733L177.58 183.467C178.962 182.107 180.059 180.492 180.807 178.715C181.555 176.937 181.939 175.032 181.939 173.109V173.109C181.938 169.224 180.371 165.498 177.58 162.751L172.229 157.489L167.201 162.438L173.234 168.354L177.477 170.045L177.048 171.076L173.183 169.614V176.587Z" fill="white"/>
<path d="M208.817 176.587L204.952 175.125L204.523 176.156L208.766 177.846L214.778 183.784L209.749 188.733L204.403 183.467C203.021 182.107 201.925 180.493 201.177 178.717C200.429 176.94 200.044 175.036 200.044 173.113V173.113C200.044 171.189 200.428 169.284 201.176 167.507C201.924 165.73 203.02 164.115 204.403 162.755L209.749 157.489L214.778 162.438L208.766 168.354L204.523 170.045L204.952 171.076L208.817 169.614V176.587Z" fill="white"/>
<path d="M187.457 190.634L188.947 186.831L187.895 186.408L186.177 190.584L180.165 196.5L175.137 191.552L180.483 186.29C183.276 183.552 187.058 182.015 191 182.017V182.017C192.955 182.017 194.89 182.396 196.696 183.132C198.502 183.868 200.143 184.947 201.525 186.307L206.872 191.568L201.843 196.517L195.81 190.601L194.092 186.429L193.044 186.852L194.53 190.656L187.457 190.634Z" fill="white"/>
<path d="M216.989 139C214.725 139.05 212.57 139.97 210.987 141.563C209.403 143.157 208.516 145.297 208.516 147.526C208.516 149.755 209.403 151.895 210.987 153.489C212.57 155.083 214.725 156.003 216.989 156.052C219.254 156.003 221.409 155.083 222.992 153.489C224.576 151.895 225.463 149.755 225.463 147.526C225.463 145.297 224.576 143.157 222.992 141.563C221.409 139.97 219.254 139.05 216.989 139ZM216.989 151.023C216.286 151.023 215.598 150.818 215.014 150.433C214.429 150.049 213.973 149.502 213.704 148.862C213.435 148.223 213.365 147.519 213.502 146.84C213.64 146.161 213.979 145.537 214.477 145.048C214.974 144.559 215.608 144.226 216.298 144.092C216.988 143.957 217.704 144.027 218.353 144.292C219.003 144.558 219.558 145.007 219.948 145.583C220.338 146.159 220.546 146.836 220.545 147.528C220.544 148.456 220.169 149.345 219.502 150C218.836 150.655 217.932 151.023 216.989 151.023V151.023Z" fill="white"/>
</g>
<path d="M363.49 411.51L371.51 403.49C375.085 399.915 376.872 398.128 378.134 396.031C379.163 394.324 379.93 392.472 380.41 390.537C381 388.163 381 385.635 381 380.579V33.4C381 21.8213 381 16.032 378.675 11.6414C376.799 8.09825 373.902 5.20069 370.359 3.32469C365.968 1 360.179 1 348.6 1H42.9205C37.8651 1 35.3374 1 32.9628 1.58987C31.0282 2.07042 29.1763 2.83749 27.4686 3.86565C25.3723 5.12769 23.585 6.91504 20.0103 10.4897L10.4897 20.0103C6.91504 23.585 5.12769 25.3723 3.86565 27.4686C2.83749 29.1763 2.07042 31.0282 1.58987 32.9628C1 35.3374 1 37.8651 1 42.9205V388.6C1 400.179 1 405.968 3.32469 410.359C5.20069 413.902 8.09825 416.799 11.6414 418.675C16.032 421 21.8213 421 33.4 421H340.579C345.635 421 348.163 421 350.537 420.41C352.472 419.93 354.324 419.163 356.031 418.134C358.128 416.872 359.915 415.085 363.49 411.51Z" stroke="white"/>
<defs>
<clipPath id="clip0_160_446">
<rect width="322" height="144" fill="white" transform="translate(30 139)"/>
</clipPath>
</defs>
</svg>
